ply
format ascii 1.0
comment Created by Open Asset Import Library - http://assimp.sf.net (v5.2.3481089591)
element vertex 317
property float x
property float y
property float z
property float nx
property float ny
property float nz
property float s
property float t
element face 376
property list uchar int vertex_index
end_header
0 1.19414973 0.0648362637 0 0.846179366 -0.532898307 1 0.5
-8.18269719e-09 0.782301188 2.06483626 0 0.728398919 0.685153365 1 1
0.509354055 0.48822546 2.06483626 0.630807579 0.364189237 0.685162842 0.833333313 1
0.866025448 0.694149733 0.0648362637 0.732820988 0.423084199 -0.532891393 0.833333313 0.5
0.509354055 -0.0999259353 2.06483626 0.630807579 -0.364189237 0.685162842 0.666666627 1
0.866025388 -0.305850267 0.0648362637 0.732820988 -0.423084199 -0.532891393 0.666666627 0.5
-5.96005236e-08 -0.394001603 2.06483626 0 -0.728398919 0.685153365 0.49999994 1
-8.74227766e-08 -0.805850208 0.0648362637 0 -0.846179366 -0.532898307 0.49999994 0.5
-0.509354055 -0.0999258459 2.06483626 -0.630807579 -0.364189237 0.685162842 0.333333254 1
-0.866025448 -0.305850118 0.0648362637 -0.732820988 -0.423084199 -0.532891393 0.333333254 0.5
0.509354055 -0.0999259353 2.06483626 0.630807579 -0.364189237 0.685162842 0.457846105 0.129999995
0.509354055 0.48822546 2.06483626 0.630807579 0.364189237 0.685162842 0.457846105 0.370000005
-8.18269719e-09 0.782301188 2.06483626 0 0.728398919 0.685153365 0.25 0.49000001
-0.509354055 0.48822543 2.06483626 -0.630807579 0.364189237 0.685162842 0.0421538949 0.369999975
-0.509354055 -0.0999258459 2.06483626 -0.630807579 -0.364189237 0.685162842 0.0421538949 0.130000025
-5.96005236e-08 -0.394001603 2.06483626 0 -0.728398919 0.685153365 0.249999985 0.0100000054
-0.509354055 0.48822543 2.06483626 -0.630807579 0.364189237 0.685162842 0.166666582 1
-0.866025448 0.694149733 0.0648362637 -0.732820988 0.423084199 -0.532891393 0.166666582 0.5
-8.18269719e-09 0.782301188 2.06483626 0 0.728398919 0.685153365 -8.94069672e-08 1
0 1.19414973 0.0648362637 0 0.846179366 -0.532898307 -8.94069672e-08 0.5
-0.866025448 0.694149733 0.0648362637 -0.732820988 0.423084199 -0.532891393 0.542153895 0.369999975
0 1.19414973 0.0648362637 0 0.846179366 -0.532898307 0.75 0.49000001
0.866025448 0.694149733 0.0648362637 0.732820988 0.423084199 -0.532891393 0.957846105 0.370000005
0.866025388 -0.305850267 0.0648362637 0.732820988 -0.423084199 -0.532891393 0.957846105 0.129999995
-8.74227766e-08 -0.805850208 0.0648362637 0 -0.846179366 -0.532898307 0.75 0.0100000054
-0.866025448 -0.305850118 0.0648362637 -0.732820988 -0.423084199 -0.532891393 0.542153895 0.130000025
0.819574773 1.5019691 1.61177933 0.353066117 0.611553431 -0.708058417 0.916666627 0.5
0.474028379 0.90346539 3.31991029 0.18761386 0.374022841 0.908244371 0.916666627 1
0.948056757 0.629784942 3.31991029 0.428736508 0.257396996 0.86598599 0.833333313 1
1.63914955 1.02878749 1.47073913 0.534822762 0.360438526 -0.764230847 0.833333313 0.5
1.63914955 0.0824240819 1.47073913 0.511274397 -0.10955099 -0.852406561 0.75 0.5
0.948056757 0.082424134 3.31991029 0.521282911 0.0435951874 0.852269709 0.75 1
0.948056757 -0.464936674 3.53696275 0.367272139 -0.211834177 0.90566963 0.666666627 1
1.63914931 -0.863939285 1.68779159 0.716624916 -0.413554251 -0.561624169 0.666666627 0.5
0.823582292 -1.33480704 1.47073913 0.35096392 -0.387308985 -0.852535069 0.583740771 0.5
0.476346314 -0.737278759 3.31991029 0.222910523 -0.473786026 0.851961076 0.583740711 1
-1.08043253e-07 -1.01229751 3.31991029 -0.0058159288 -0.500363767 0.865795791 0.49999994 1
-1.58967822e-07 -1.81030238 1.47073913 -0.0563823134 -0.633147597 -0.771974862 0.49999994 0.5
-0.819574893 -1.33712077 1.64858437 -0.369980097 -0.640814722 -0.672659755 0.416666627 0.5
-0.474028438 -0.738617063 3.31991029 -0.229522929 -0.348559767 0.908749342 0.416666627 1
-0.948056757 -0.464936495 3.31991029 -0.463402689 -0.227640599 0.856409788 0.333333254 1
-1.63914955 -0.863939106 1.47073913 -0.533192754 -0.394844979 -0.748199761 0.333333254 0.5
0.948056757 0.356104553 3.31991029 0.403879434 0.0123872012 0.914728343 0.457846105 0.310000002
0.948056757 0.629784942 3.31991029 0.428736508 0.257396996 0.86598599 0.457846105 0.370000005
0.474028379 0.90346539 3.31991029 0.18761386 0.374022841 0.908244371 0.353923053 0.430000007
-1.23396493e-08 1.17714584 3.31991029 -0.0278245471 0.515450835 0.856467366 0.25 0.49000001
-0.948056757 0.629784822 3.31991029 -0.453853279 0.257359087 0.853102267 0.0421538949 0.369999975
-0.948056757 0.0824241787 3.31991029 -0.440614939 0.0122203175 0.897613049 0.0421538949 0.25
-0.948056757 -0.464936495 3.31991029 -0.463402689 -0.227640599 0.856409788 0.0421538949 0.130000025
-0.474028438 -0.738617063 3.31991029 -0.229522929 -0.348559767 0.908749342 0.146076947 0.0700000152
-1.08043253e-07 -1.01229751 3.31991029 -0.0058159288 -0.500363767 0.865795791 0.249999985 0.0100000054
0.476346314 -0.737278759 3.31991029 0.222910523 -0.473786026 0.851961076 0.354431242 0.0702933967
0.948056757 -0.464936674 3.53696275 0.367272139 -0.211834177 0.90566963 0.457846105 0.129999995
-1.63914955 0.0824241787 1.4072299 -0.529873312 0 -0.84807682 0.249999911 0.5
-0.948056757 0.0824241787 3.31991029 -0.440614939 0.0122203175 0.897613049 0.249999911 1
-0.948056757 0.629784822 3.31991029 -0.453853279 0.257359087 0.853102267 0.166666582 1
-1.63914955 1.02878737 1.47073913 -0.60711658 0.372003734 -0.702155709 0.166666582 0.5
-1.23396493e-08 1.17714584 3.31991029 -0.0278245471 0.515450835 0.856467366 -8.94069672e-08 1
6.49960086e-09 1.97515082 1.47073913 0.0447276756 0.643383086 -0.764236569 -8.94069672e-08 0.5
0.575727582 1.07961333 1.61177933 -0.283489853 -0.491023123 -0.823729217 0.823002994 0.376444787
1.15145504 0.74721688 1.47073913 -0.345849127 -0.0802453309 -0.934852481 0.896005809 0.334296525
1.15145504 0.74721688 2.07773566 -0.518218577 -0.299186766 -0.801209688 0.896005809 0.334296525
0.575727582 1.07961333 2.07773566 -0.249222979 -0.431670994 -0.866918743 0.823002934 0.376444817
2.58788422e-08 1.41200984 1.47073913 0.103403144 -0.339638025 -0.934855044 0.75 0.418593019
6.49960086e-09 1.97515082 1.47073913 0.0447276756 0.643383086 -0.764236569 0.75 0.49000001
0.819574773 1.5019691 1.61177933 0.353066117 0.611553431 -0.708058417 0.853923082 0.430000007
1.15145504 0.414820492 1.47073913 -0.498414516 0 -0.866938829 0.896005929 0.292148262
1.63914955 1.02878749 1.47073913 0.534822762 0.360438526 -0.764230847 0.957846105 0.370000005
1.63914955 0.555605769 1.47073913 0.579776347 0 -0.814775705 0.957846045 0.310000002
0.57854265 -0.913139462 1.47073913 -0.140327543 0.466413438 -0.873365164 0.823359966 0.123761348
1.15145481 -0.582368672 1.68779159 -0.390385181 0.226157352 -0.89244175 0.896005869 0.16570349
1.63914931 -0.863939285 1.68779159 0.716624916 -0.413554251 -0.561624169 0.957846105 0.129999995
0.823582292 -1.33480704 1.47073913 0.35096392 -0.387308985 -0.852535069 0.854431272 0.0702933967
-0.575727582 -0.914764941 1.64858437 0.294033051 0.509289682 -0.808806896 0.676997185 0.12355525
-1.00830121e-07 -1.24716127 1.47073913 -0.127995074 0.339148432 -0.931984842 0.75 0.0814069808
-1.58967822e-07 -1.81030238 1.47073913 -0.0563823134 -0.633147597 -0.771974862 0.75 0.0100000054
-0.819574893 -1.33712077 1.64858437 -0.369980097 -0.640814722 -0.672659755 0.646076918 0.0700000077
-1.15145504 0.082424134 1.4072299 0.476922393 0 -0.878945351 0.603994131 0.25
-1.15145504 -0.582368553 1.47073913 0.389003932 0.0205636416 -0.921006501 0.603994131 0.165703505
-1.63914955 -0.863939106 1.47073913 -0.533192754 -0.394844979 -0.748199761 0.542153895 0.130000025
-1.63914955 0.0824241787 1.4072299 -0.529873312 0 -0.84807682 0.542153835 0.25
-1.15145504 0.747216761 1.47073913 0.335173637 -0.138697982 -0.931891382 0.603994131 0.334296525
-1.63914955 1.02878737 1.47073913 -0.60711658 0.372003734 -0.702155709 0.542153895 0.369999975
-1.15145504 0.747216761 2.07773566 0.518218577 -0.299186766 -0.801209688 0.603994131 0.334296525
2.58788422e-08 1.41200984 2.07773566 0 -0.598377168 -0.801214516 0.75 0.418593019
1.15145504 0.414820492 2.07773566 -0.498414516 0 -0.866938829 0.896005869 0.292148262
1.15145504 0.257855564 2.07773566 -0.498414516 0 -0.866938829 0.896005869 0.2722449
1.15145493 0.082424134 2.07773566 -0.498414516 0 -0.866938829 0.896005929 0.25
1.15145481 -0.582368672 2.07773566 -0.518218577 0.299186766 -0.801209688 0.896005869 0.16570349
0.57854265 -0.913139462 2.07773566 -0.249197051 0.431641847 -0.866940796 0.823359907 0.123761341
-1.00830121e-07 -1.24716127 2.07773566 0 0.598377168 -0.801214516 0.75 0.0814069808
-0.575727582 -0.914764941 2.07773566 0.249228746 0.431702495 -0.866901338 0.676997066 0.12355525
-1.15145504 -0.582368553 2.07773566 0.518218577 0.299186766 -0.801209688 0.603994131 0.165703505
-1.15145504 0.082424134 2.07773566 0.498479187 0 -0.866901696 0.603994131 0.25
1.15145493 0.082424134 1.47073913 -0.474098653 -0.111373052 -0.873399377 0.896005929 0.25
6.49960086e-09 1.97515082 1.47073913 0.0447276756 0.643383086 -0.764236569 1 0.5
-1.23396493e-08 1.17714584 3.31991029 -0.0278245471 0.515450835 0.856467366 1 1
1.15145504 0.257855564 1.47073913 -0.498414516 0 -0.866938829 0.896005929 0.2722449
1.63914955 0.0824240819 1.47073913 0.511274397 -0.10955099 -0.852406561 0.957846045 0.25
1.63914955 0.332158864 1.47073913 0.579776347 0 -0.814775705 0.771990716 0.5
0.948056757 0.226866573 3.31991029 0.403879434 0.0123872012 0.914728343 0.771990716 1
0.948056757 0.356104553 3.31991029 0.403879434 0.0123872012 0.914728343 0.791666627 1
1.63914955 0.555605769 1.47073913 0.579776347 0 -0.814775705 0.791666627 0.5
1.63914955 0.332158864 1.47073913 0.579776347 0 -0.814775705 0.957845986 0.281666636
1.98132861 0.368460298 2.62430429 0.693323791 0.14622955 -0.705633938 1 0.5
0.762303174 0.0536017567 4.5045023 0.461154372 0.0476286225 0.886040807 1 1
0.474040747 -0.690461338 4.65067291 0.211441368 -0.357840389 0.909528792 0.833333313 1
1.26891351 -1.4704262 2.68086696 0.524237692 -0.580683887 -0.622881353 0.833333313 0.5
-0.31630969 -0.812043667 4.4120121 -0.232810915 -0.512680411 0.826412737 0.666666627 1
-0.684367776 -1.77090585 2.39572382 -0.213207811 -0.585018694 -0.782493174 0.666666627 0.5
-1.30480075 -1.00170243 2.43194079 -0.469996482 -0.214019403 -0.856328785 0.583333254 0.5
-0.567353725 -0.500803113 4.42666674 -0.363712639 -0.271717757 0.891000926 0.583333254 1
-0.818397701 -0.189562663 4.4413209 -0.503510416 -0.0896303654 0.859327435 0.49999994 1
-1.92523396 -0.232499093 2.64342713 -0.822570086 -0.088362962 -0.561756611 0.49999994 0.5
-1.56902635 0.686944127 2.54341149 -0.528342664 0.167321578 -0.832380652 0.416666627 0.5
-0.674266458 0.182468861 4.47177076 -0.417513758 0.134503052 0.898660779 0.416666627 1
-0.530135155 0.554500341 4.50222015 -0.345901489 0.33747375 0.875479043 0.333333254 1
-1.21281886 1.60638714 2.61866522 -0.433614582 0.611048043 -0.662267923 0.333333254 0.5
-0.31630969 -0.812043667 4.4120121 -0.232810915 -0.512680411 0.826412737 0.457846105 0.129999995
0.474040747 -0.690461338 4.65067291 0.211441368 -0.357840389 0.909528792 0.457846105 0.370000005
0.762303174 0.0536017567 4.5045023 0.461154372 0.0476286225 0.886040807 0.25 0.49000001
0.260215014 0.676082611 4.53381062 0.111385986 0.412399322 0.904168069 0.0421538949 0.369999975
-0.13496007 0.615291476 4.51801538 -0.123252325 0.36427772 0.923098385 0.0421538949 0.25
-0.530135155 0.554500341 4.50222015 -0.345901489 0.33747375 0.875479043 0.0421538949 0.130000025
-0.674266458 0.182468861 4.47177076 -0.417513758 0.134503052 0.898660779 0.146076947 0.0700000152
-0.818397701 -0.189562663 4.4413209 -0.503510416 -0.0896303654 0.859327435 0.249999985 0.0100000054
-0.567353725 -0.500803113 4.42666674 -0.363712639 -0.271717757 0.891000926 0.353923053 0.0700000003
-0.236178413 1.75662708 2.65770173 -0.0715723261 0.659651041 -0.748156428 0.249999911 0.5
-0.13496007 0.615291476 4.51801538 -0.123252325 0.36427772 0.923098385 0.249999911 1
0.260215014 0.676082611 4.53381062 0.111385986 0.412399322 0.904168069 0.166666582 1
0.740462005 1.90686691 2.69673824 0.280516833 0.720905304 -0.633723915 0.166666582 0.5
0.762303174 0.0536017567 4.5045023 0.461154372 0.0476286225 0.886040807 -8.94069672e-08 1
1.98132861 0.368460298 2.62430429 0.693323791 0.14622955 -0.705633938 -8.94069672e-08 0.5
1.4001708 0.279058814 2.60107517 -0.311918885 -0.0530021824 -0.94862926 0.75 0.418593019
0.899719715 -1.01270568 2.70241809 -0.204506129 0.345406055 -0.915899575 0.896005809 0.334296525
0.881306589 -1.05733526 3.12778735 -0.351724476 0.523958623 -0.775730133 0.896005809 0.334296525
1.3817575 0.234429166 3.23351431 -0.567662001 -0.0345493294 -0.822536469 0.75 0.418593019
1.98132861 0.368460298 2.62430429 0.693323791 0.14622955 -0.705633938 0.75 0.49000001
1.26891351 -1.4704262 2.68086696 0.524237692 -0.580683887 -0.622881353 0.957846105 0.370000005
-0.472403556 -1.22378373 2.44050407 0.214273259 0.370865434 -0.903629243 0.896005869 0.16570349
-0.684367776 -1.77090585 2.39572382 -0.213207811 -0.585018694 -0.782493174 0.957846105 0.129999995
-0.908239722 -0.683440685 2.46594548 0.342069417 0.425509334 -0.837812841 0.823002934 0.123555236
-1.30480075 -1.00170243 2.43194079 -0.469996482 -0.214019403 -0.856328785 0.853923082 0.0700000003
-1.09385061 0.502784491 2.54425049 0.437376022 -0.193386421 -0.878239095 0.676997185 0.12355525
-1.34407604 -0.143097699 2.66665626 0.447627246 0.120912991 -0.886007905 0.75 0.0814069808
-1.92523396 -0.232499093 2.64342713 -0.822570086 -0.088362962 -0.561756611 0.75 0.0100000054
-1.56902635 0.686944127 2.54341149 -0.528342664 0.167321578 -0.832380652 0.646076918 0.0700000077
-0.157563657 1.25420582 2.62453604 0.102054358 -0.430378765 -0.896860659 0.603994131 0.25
-0.843625247 1.14866662 2.59711409 0.246672824 -0.206189886 -0.946909845 0.603994131 0.165703505
-1.21281886 1.60638714 2.61866522 -0.433614582 0.611048043 -0.662267923 0.542153895 0.130000025
-0.236178413 1.75662708 2.65770173 -0.0715723261 0.659651041 -0.748156428 0.542153835 0.25
0.528497875 1.35974503 2.65195799 -0.0988108441 -0.259336799 -0.960718811 0.603994131 0.334296525
0.740462005 1.90686691 2.69673824 0.280516833 0.720905304 -0.633723915 0.542153895 0.369999975
0.510084689 1.31511533 3.28439736 -0.192276537 -0.499982506 -0.844421208 0.603994131 0.334296525
-0.490816802 -1.26841342 3.07294321 0.237664446 0.614622295 -0.752166867 0.896005869 0.16570349
-0.926652908 -0.728070378 3.09838486 0.415428996 0.371060789 -0.830501497 0.823002934 0.123555236
-1.36248922 -0.187727362 3.12382627 0.616026163 0.147331968 -0.773825049 0.75 0.0814069808
-1.11226392 0.458154827 3.17668962 0.489995897 -0.119076245 -0.863553643 0.676997066 0.12355525
-0.862038434 1.10403693 3.22955322 0.398679078 -0.409073859 -0.820800543 0.603994131 0.165703505
-0.175976872 1.20957613 3.25697517 0.102063254 -0.430445194 -0.896827757 0.603994131 0.25
1.68724632 -0.0920481831 3.34715986 0.669441223 -0.0425196514 -0.741647124 1 0.5
0.809312224 -0.02683134 5.0632391 0.55118829 -0.0594402142 0.832261026 1 1
0.439580351 -0.601005912 5.09564686 0.303015262 -0.481052846 0.822660208 0.833333313 1
0.775261164 -1.50831473 3.42709661 0.249718875 -0.616554618 -0.746659815 0.833333313 0.5
-0.241429836 -0.566713214 5.31411886 -0.140993893 -0.392509341 0.908876896 0.666666627 1
-0.904527068 -1.42372763 3.71856904 -0.479343802 -0.675932646 -0.559771955 0.666666627 0.5
-0.552708268 0.041754134 5.16278934 -0.431224674 -0.0130397594 0.902150273 0.49999994 1
-1.6723299 0.0771256015 3.59271073 -0.73179394 0.0219797827 -0.681171358 0.49999994 0.5
-1.21633744 0.78525883 3.55274248 -0.5712623 0.325305194 -0.75354892 0.416666627 0.5
-0.367842287 0.328841448 5.14658546 -0.241756037 0.172712192 0.954842746 0.416666627 1
-0.182976276 0.61592871 5.13038158 -0.313917786 0.476363838 0.821299732 0.333333254 1
-0.760344863 1.49339211 3.51277399 -0.225202426 0.57234776 -0.788480818 0.333333254 0.5
-0.241429836 -0.566713214 5.31411886 -0.140993893 -0.392509341 0.908876896 0.457846105 0.129999995
0.439580351 -0.601005912 5.09564686 0.303015262 -0.481052846 0.822660208 0.457846105 0.370000005
0.809312224 -0.02683134 5.0632391 0.55118829 -0.0594402142 0.832261026 0.25 0.49000001
0.498033732 0.581636012 5.08060694 0.482844889 0.434688598 0.760201752 0.0421538949 0.369999975
0.157528728 0.598782361 5.61907959 0.114525683 0.377264917 0.918996751 0.0421538949 0.25
-0.182976276 0.61592871 5.13038158 -0.313917786 0.476363838 0.821299732 0.0421538949 0.130000025
-0.367842287 0.328841448 5.14658546 -0.241756037 0.172712192 0.954842746 0.146076947 0.0700000152
-0.552708268 0.041754134 5.16278934 -0.431224674 -0.0130397594 0.902150273 0.249999985 0.0100000054
0.0795491263 1.45109868 3.9649713 0.0152211487 0.978044391 -0.207839772 0.249999911 0.5
0.157528728 0.598782361 5.61907959 0.114525683 0.377264917 0.918996751 0.249999911 1
0.498033732 0.581636012 5.08060694 0.482844889 0.434688598 0.760201752 0.166666582 1
0.919443011 1.40880525 3.38999867 0.172845751 0.552473068 -0.81541276 0.166666582 0.5
0.809312224 -0.02683134 5.0632391 0.55118829 -0.0594402142 0.832261026 -8.94069672e-08 1
1.68724632 -0.0920481831 3.34715986 0.669441223 -0.0425196514 -0.741647124 -8.94069672e-08 0.5
1.18746054 -0.0668811649 3.38368917 -0.417162716 0.00906141568 -0.908786714 0.75 0.418593019
0.546817422 -1.06176734 3.43984222 -0.284316868 0.277662456 -0.917642355 0.896005809 0.334296525
0.586484909 -1.05686891 3.97918844 -0.331362784 0.524902344 -0.784012794 0.896005809 0.334296525
1.22712791 -0.061982736 3.92303514 -0.654800057 0.0227568205 -0.755459487 0.75 0.418593019
1.68724632 -0.0920481831 3.34715986 0.669441223 -0.0425196514 -0.741647124 0.75 0.49000001
0.775261164 -1.50831473 3.42709661 0.249718875 -0.616554618 -0.746659815 0.957846105 0.370000005
-0.63318491 -1.00234747 3.69478559 0.126317605 0.287652314 -0.949368238 0.896005869 0.16570349
-0.904527068 -1.42372763 3.71856904 -0.479343802 -0.675932646 -0.559771955 0.957846105 0.129999995
-1.17254424 0.0519585162 3.55618143 0.28054437 -0.0893545523 -0.95567292 0.75 0.0814069808
-1.6723299 0.0771256015 3.59271073 -0.73179394 0.0219797827 -0.681171358 0.75 0.0100000054
-0.8522228 0.549401581 3.52810478 0.354064047 -0.278375745 -0.892830074 0.676997185 0.12355525
-1.21633744 0.78525883 3.55274248 -0.5712623 0.325305194 -0.75354892 0.646076918 0.0700000077
0.0580999181 1.01713479 3.97049022 -0.0781503618 -0.793776453 -0.603167892 0.603994131 0.25
-0.53190124 1.04684472 3.50002837 0.370794952 -0.178602412 -0.911379218 0.603994131 0.165703505
-0.760344863 1.49339211 3.51277399 -0.225202426 0.57234776 -0.788480818 0.542153895 0.130000025
0.0795491263 1.45109868 3.9649713 0.0152211487 0.978044391 -0.207839772 0.542153835 0.25
0.648101091 0.98742485 3.41378212 -0.501057148 -0.142422661 -0.85361433 0.603994131 0.334296525
0.919443011 1.40880525 3.38999867 0.172845751 0.552473068 -0.81541276 0.542153895 0.369999975
0.687768459 0.992323279 3.95312834 -0.380223691 -0.511942685 -0.770288706 0.603994131 0.334296525
-0.593517542 -0.99744904 4.06543446 0.262601346 0.49452582 -0.828543782 0.896005869 0.16570349
-1.13287687 0.0568569452 4.09552765 0.535636902 -0.0389541425 -0.843549311 0.75 0.0814069808
-0.812555313 0.55430001 4.067451 0.354125857 -0.278410137 -0.892794907 0.676997066 0.12355525
-0.492233783 1.05174315 4.03937435 0.211095095 -0.541986525 -0.813442945 0.603994131 0.165703505
0.0977673233 1.02203321 3.99625134 -0.0864035487 -0.508152246 -0.856922209 0.603994131 0.25
0.817046702 -1.30837727 4.49385834 0.435479403 -0.64902997 -0.623792946 1 0.5
0.0415137261 -0.195354521 5.97463226 0.162441507 -0.374700427 0.912804663 1 1
-0.171917155 -0.199332878 5.96174049 -0.257079124 -0.382515013 0.887464106 0.833333313 1
-0.721776903 -1.33706117 4.40090942 -0.332861781 -0.663343668 -0.67020756 0.833333313 0.5
-0.282252043 -0.0161729045 5.95808029 -0.473937124 -0.0225228034 0.88027066 0.666666627 1
-1.51728427 -0.0164892636 4.37452126 -0.730049253 -0.003997989 -0.683382869 0.666666627 0.5
-0.179156035 0.170965448 5.96731234 -0.271295875 0.345319569 0.898416996 0.49999994 1
-0.77396822 1.33276653 4.441082 -0.358915836 0.669695318 -0.650144279 0.49999994 0.5
0.0342748612 0.174943775 5.98020411 0.148224831 0.353134155 0.923756242 0.333333254 1
0.764855206 1.36145043 4.53403044 0.409426004 0.684009135 -0.603739977 0.333333254 0.5
-0.282252043 -0.0161729045 5.95808029 -0.473937124 -0.0225228034 0.88027066 0.457846105 0.129999995
-0.171917155 -0.199332878 5.96174049 -0.257079124 -0.382515013 0.887464106 0.457846105 0.370000005
0.0415137261 -0.195354521 5.97463226 0.162441507 -0.374700427 0.912804663 0.25 0.49000001
0.144609705 -0.00821613893 5.98386383 0.3650828 -0.00685802149 0.930949748 0.0421538949 0.369999975
0.0342748612 0.174943775 5.98020411 0.148224831 0.353134155 0.923756242 0.0421538949 0.130000025
-0.179156035 0.170965448 5.96731234 -0.271295875 0.345319569 0.898416996 0.249999985 0.0100000054
0.144609705 -0.00821613893 5.98386383 0.3650828 -0.00685802149 0.930949748 0.166666582 1
1.5603627 0.0408786573 4.56041861 0.806613445 0.0246634074 -0.590564609 0.166666582 0.5
0.0415137261 -0.195354521 5.97463226 0.162441507 -0.374700427 0.912804663 -8.94069672e-08 1
0.817046702 -1.30837727 4.49385834 0.435479403 -0.64902997 -0.623792946 -8.94069672e-08 0.5
0.580360174 -0.915468931 4.48600674 -0.124288686 0.31477496 -0.940993667 0.75 0.418593019
-0.500618875 -0.93561846 4.42071342 0.224837929 0.321284056 -0.919904649 0.896005809 0.334296525
-0.530279994 -0.943624258 4.91424274 0.336533248 0.536592722 -0.773830473 0.896005809 0.334296525
0.550699055 -0.923474729 4.97953653 -0.260660082 0.525458395 -0.809907377 0.75 0.418593019
0.817046702 -1.30837727 4.49385834 0.435479403 -0.64902997 -0.623792946 0.75 0.49000001
-0.721776903 -1.33706117 4.40090942 -0.332861781 -0.663343668 -0.67020756 0.957846105 0.370000005
-1.05943966 -0.00795497932 4.40217638 0.405320317 0.0216766708 -0.91391772 0.896005869 0.16570349
-1.51728427 -0.0164892636 4.37452126 -0.730049253 -0.003997989 -0.683382869 0.957846105 0.129999995
-0.537281692 0.93985796 4.44893312 0.23667644 -0.284440428 -0.929019868 0.75 0.0814069808
-0.77396822 1.33276653 4.441082 -0.358915836 0.669695318 -0.650144279 0.75 0.0100000054
0.543697178 0.960007608 4.51422691 -0.112450257 -0.290949523 -0.950106919 0.603994131 0.165703505
0.764855206 1.36145043 4.53403044 0.409426004 0.684009135 -0.603739977 0.542153895 0.130000025
1.10251808 0.0323443748 4.53276348 -0.29293263 0.00865783822 -0.956093848 0.603994131 0.334296525
1.5603627 0.0408786573 4.56041861 0.806613445 0.0246634074 -0.590564609 0.542153895 0.369999975
1.07285702 0.0243385546 5.02629328 -0.549132049 0.00183423294 -0.835733533 0.603994131 0.334296525
-1.08910072 -0.0159608014 4.89570618 0.645251334 0.0241092891 -0.763589859 0.896005869 0.16570349
-0.566942811 0.931852162 4.94246244 0.356779963 -0.499514729 -0.78942585 0.75 0.0814069808
0.514036059 0.95200181 5.00775623 -0.240413964 -0.510649204 -0.825492918 0.603994131 0.165703505
-0.747667253 -0.936347663 5.2814765 -0.473352492 -0.679316223 -0.560773611 0.916666627 0.5
-0.236089706 -0.10889259 6.69885921 -0.289117336 -0.295239896 0.910628676 0.916666627 1
-0.309466392 -0.0533485413 6.69403934 -0.497914553 -0.144647807 0.855077863 0.833333313 1
-1.27670884 -0.535878599 5.13618517 -0.661934495 -0.353254527 -0.661100626 0.833333313 0.5
-0.286554337 0.129509524 6.69088507 -0.427581102 0.305406392 0.850823939 0.666666627 1
-1.11151421 0.782516599 5.11344242 -0.6147995 0.476827264 -0.628217638 0.666666627 0.5
-0.499875456 1.04124498 5.1421442 -0.237306476 0.641922057 -0.72912389 0.583333254 0.5
-0.201721638 0.165394545 6.6948657 -0.20696874 0.388581842 0.897868633 0.583333254 1
-0.116888903 0.201279536 6.69884682 0.00934297405 0.490513593 0.871383429 0.49999994 1
0.111763202 1.29997349 5.17084646 0.134407818 0.793981731 -0.592897475 0.49999994 0.5
0.640804768 0.899504602 5.21092033 0.519871414 0.439994037 -0.732215166 0.416666627 0.5
-0.0435122028 0.145735502 6.70440483 0.169140592 0.352774203 0.920294404 0.416666627 1
0.0298644826 0.0901914462 6.70996284 0.357128054 0.207221448 0.910779178 0.333333254 1
1.16984618 0.499035597 5.39240694 0.859148204 0.325890571 -0.39453727 0.333333254 0.5
-0.286554337 0.129509524 6.69088507 -0.427581102 0.305406392 0.850823939 0.457846105 0.129999995
-0.309466392 -0.0533485413 6.69403934 -0.497914553 -0.144647807 0.855077863 0.457846105 0.370000005
-0.236089706 -0.10889259 6.69885921 -0.289117336 -0.295239896 0.910628676 0.353923053 0.430000007
-0.162713006 -0.164436609 6.70515537 -0.0995280817 -0.453665346 0.885596991 0.25 0.49000001
-0.0778802782 -0.128551587 6.70499277 0.109495133 -0.362483203 0.925535917 0.146076947 0.430000007
0.00695244968 -0.0926665589 6.7131176 0.326442033 -0.268753886 0.9062047 0.0421538949 0.369999975
0.0298644826 0.0901914462 6.70996284 0.357128054 0.207221448 0.910779178 0.0421538949 0.130000025
-0.0435122028 0.145735502 6.70440483 0.169140592 0.352774203 0.920294404 0.146076947 0.0700000152
-0.116888903 0.201279536 6.69884682 0.00934297405 0.490513593 0.871383429 0.249999985 0.0100000054
-0.201721638 0.165394545 6.6948657 -0.20696874 0.388581842 0.897868633 0.353923053 0.0700000003
1.08709788 -0.161367476 5.33296347 0.653753817 -0.488008946 -0.578319252 0.249847502 0.5
0.00695244968 -0.0926665589 6.7131176 0.326442033 -0.268753886 0.9062047 0.166666582 1
1.0046519 -0.819359303 5.27373695 0.654133558 -0.4699108 -0.592699766 0.166666582 0.5
1.05243564 -0.438002229 5.30806351 0.80519104 0.194180131 -0.560322583 0.214876354 0.5
0.855377793 -0.109036848 5.63837147 0.892690361 -0.183712453 -0.411526054 0.250824183 0.609978437
0.39301309 -1.07808805 5.29573345 0.336179942 -0.729313612 -0.595889747 0.0833332464 0.5
-0.0778802782 -0.128551587 6.70499277 0.109495133 -0.362483203 0.925535917 0.083333239 1
-0.162713006 -0.164436609 6.70515537 -0.0995280817 -0.453665346 0.885596991 -8.94069672e-08 1
-0.218625695 -1.33681679 5.21633244 -0.0771400183 -0.758661687 -0.646901786 -8.94069672e-08 0.5
-0.541111946 -0.663238049 5.28663301 0.41721499 0.47617653 -0.774072051 0.823002994 0.376444787
-0.912748218 -0.381920099 5.15326452 0.449715525 0.0303488653 -0.892656028 0.896005809 0.334296525
-0.941099405 -0.369826287 5.64840555 0.649496496 0.230577484 -0.724560857 0.896005809 0.334296525
-0.569463074 -0.651144147 5.67655611 0.387298584 0.416860551 -0.822330177 0.823002934 0.376444817
-0.169475585 -0.944555879 5.20956612 0.0455861427 0.363928258 -0.930310786 0.75 0.418593019
-0.218625695 -1.33681679 5.21633244 -0.0771400183 -0.758661687 -0.646901786 0.75 0.49000001
-0.747667253 -0.936347663 5.2814765 -0.473352492 -0.679316223 -0.560773611 0.853923082 0.430000007
-0.796703815 0.544214249 5.13728809 0.369460523 -0.262594461 -0.891371429 0.896005869 0.16570349
-1.27670884 -0.535878599 5.13618517 -0.661934495 -0.353254527 -0.661100626 0.957846105 0.370000005
-1.11151421 0.782516599 5.11344242 -0.6147995 0.476827264 -0.628217638 0.957846105 0.129999995
-0.367045403 0.725963473 5.15745068 0.262937665 -0.532352984 -0.804651499 0.823002934 0.123555236
-0.499875456 1.04124498 5.1421442 -0.237306476 0.641922057 -0.72912389 0.853923082 0.0700000003
0.434249341 0.626394987 5.20576382 -0.193640098 -0.506177127 -0.840409577 0.676997185 0.12355525
0.0626130477 0.907712817 5.17761326 0.00285530649 -0.417852849 -0.908510208 0.75 0.0814069808
0.111763202 1.29997349 5.17084646 0.134407818 0.793981731 -0.592897475 0.75 0.0100000054
0.640804768 0.899504602 5.21092033 0.519871414 0.439994037 -0.732215166 0.646076918 0.0700000077
0.68984139 -0.581057012 5.2498908 -0.235820025 0.227153122 -0.944875836 0.603994131 0.334296525
0.737768888 -0.198554292 5.30169725 -0.500609219 0.179678708 -0.84682101 0.603994131 0.264665902
1.05243564 -0.438002229 5.30806351 0.80519104 0.194180131 -0.560322583 0.542153895 0.300577909
1.0046519 -0.819359303 5.27373695 0.654133558 -0.4699108 -0.592699766 0.542153895 0.369999975
0.260182887 -0.762806416 5.28042698 -0.179463059 0.516426384 -0.837315202 0.676997066 0.376444757
0.39301309 -1.07808805 5.29573345 0.336179942 -0.729313612 -0.595889747 0.646076918 0.430000007
0.231831759 -0.750712574 5.77556801 -0.16541408 0.486222416 -0.858036101 0.676997066 0.376444757
-0.197826743 -0.932462037 5.70470715 0.113233581 0.650181115 -0.751293898 0.75 0.418593019
-0.825055003 0.556308091 5.6324296 0.565523803 -0.419209868 -0.710243464 0.896005869 0.16570349
-0.39539656 0.738057315 5.65259171 0.265047997 -0.537802935 -0.800323486 0.823002934 0.123555236
0.0342618898 0.919806659 5.67275429 -0.0352466963 -0.673555195 -0.738296092 0.75 0.0814069808
0.405898154 0.638488829 5.70090485 -0.282955617 -0.47102496 -0.835506797 0.676997066 0.12355525
0.777534485 0.357170969 5.7290554 -0.554881155 -0.282053381 -0.782657504 0.603994131 0.165703505
0.661490202 -0.56896317 5.74503183 -0.481937259 0.398241729 -0.780474246 0.603994131 0.334296525
0.805885613 0.345077157 5.37532759 -0.340451926 -0.253977299 -0.905311048 0.603994131 0.165703505
0.773694038 0.0881596431 5.3405304 -0.581879675 -0.042215284 -0.812178433 0.603994131 0.212472647
1.16984618 0.499035597 5.39240694 0.859148204 0.325890571 -0.39453727 0.542153895 0.130000025
-0.218625695 -1.33681679 5.21633244 -0.0771400183 -0.758661687 -0.646901786 1 0.5
-0.162713006 -0.164436609 6.70515537 -0.0995280817 -0.453665346 0.885596991 1 1
1.08709788 -0.161367476 5.33296347 0.653753817 -0.488008946 -0.578319252 0.542153895 0.250219464
3 0 1 2
3 0 2 3
3 3 2 4
3 3 4 5
3 5 4 6
3 5 6 7
3 7 6 8
3 7 8 9
3 10 11 12
3 13 10 12
3 10 13 14
3 14 15 10
3 9 8 16
3 9 16 17
3 17 16 18
3 17 18 19
3 20 21 22
3 23 20 22
3 20 23 24
3 24 25 20
3 26 27 28
3 26 28 29
3 30 31 32
3 30 32 33
3 34 35 36
3 34 36 37
3 38 39 40
3 38 40 41
3 42 43 44
3 45 42 44
3 42 45 46
3 47 42 46
3 42 47 48
3 49 42 48
3 42 49 50
3 51 42 50
3 42 51 52
3 53 54 55
3 53 55 56
3 56 55 57
3 56 57 58
3 59 60 61
3 59 61 62
3 59 63 64
3 59 64 65
3 66 60 67
3 66 67 68
3 69 70 71
3 69 71 72
3 73 74 75
3 73 75 76
3 77 78 79
3 77 79 80
3 63 81 82
3 63 82 64
3 83 84 62
3 61 83 62
3 83 61 85
3 86 83 85
3 83 86 87
3 88 83 87
3 83 88 89
3 90 83 89
3 83 90 91
3 92 83 91
3 83 92 93
3 81 63 84
3 81 84 83
3 73 78 92
3 73 92 91
3 94 70 88
3 94 88 87
3 77 81 83
3 77 83 93
3 69 74 90
3 69 90 89
3 60 59 65
3 60 65 67
3 63 59 62
3 63 62 84
3 95 96 27
3 95 27 26
3 78 77 93
3 78 93 92
3 81 77 80
3 81 80 82
3 41 40 54
3 41 54 53
3 74 73 91
3 74 91 90
3 78 73 76
3 78 76 79
3 37 36 39
3 37 39 38
3 97 94 87
3 97 87 86
3 70 94 98
3 70 98 71
3 99 100 31
3 99 31 30
3 29 28 101
3 29 101 102
3 60 66 85
3 60 85 61
3 97 66 68
3 97 68 103
3 94 97 103
3 94 103 98
3 102 101 100
3 102 100 99
3 66 97 86
3 66 86 85
3 70 69 89
3 70 89 88
3 74 69 72
3 74 72 75
3 33 32 35
3 33 35 34
3 104 105 106
3 104 106 107
3 107 106 108
3 107 108 109
3 110 111 112
3 110 112 113
3 114 115 116
3 114 116 117
3 118 119 120
3 121 118 120
3 118 121 122
3 123 118 122
3 118 123 124
3 125 118 124
3 118 125 126
3 127 128 129
3 127 129 130
3 130 129 131
3 130 131 132
3 133 134 135
3 133 135 136
3 134 133 137
3 134 137 138
3 139 134 138
3 139 138 140
3 141 139 140
3 141 140 142
3 143 144 145
3 143 145 146
3 147 148 149
3 147 149 150
3 133 151 152
3 133 152 137
3 153 136 135
3 154 153 135
3 153 154 155
3 156 153 155
3 153 156 157
3 158 153 157
3 153 158 159
3 151 133 136
3 151 136 153
3 143 148 158
3 143 158 157
3 134 139 154
3 134 154 135
3 147 151 153
3 147 153 159
3 141 144 156
3 141 156 155
3 144 143 157
3 144 157 156
3 148 143 146
3 148 146 149
3 113 112 115
3 113 115 114
3 139 141 155
3 139 155 154
3 144 141 142
3 144 142 145
3 109 108 111
3 109 111 110
3 148 147 159
3 148 159 158
3 151 147 150
3 151 150 152
3 117 116 128
3 117 128 127
3 160 161 162
3 160 162 163
3 163 162 164
3 163 164 165
3 165 164 166
3 165 166 167
3 168 169 170
3 168 170 171
3 172 173 174
3 175 172 174
3 172 175 176
3 177 172 176
3 172 177 178
3 178 179 172
3 180 181 182
3 180 182 183
3 183 182 184
3 183 184 185
3 186 187 188
3 186 188 189
3 187 186 190
3 187 190 191
3 192 187 191
3 192 191 193
3 194 192 193
3 194 193 195
3 196 194 195
3 196 195 197
3 198 199 200
3 198 200 201
3 186 202 203
3 186 203 190
3 204 189 188
3 205 204 188
3 204 205 206
3 207 204 206
3 204 207 208
3 208 209 204
3 202 186 189
3 202 189 204
3 196 199 208
3 196 208 207
3 187 192 205
3 187 205 188
3 198 202 204
3 198 204 209
3 192 194 206
3 192 206 205
3 198 209 208
3 198 208 199
3 202 198 201
3 202 201 203
3 171 170 181
3 171 181 180
3 194 196 207
3 194 207 206
3 199 196 197
3 199 197 200
3 167 166 169
3 167 169 168
3 210 211 212
3 210 212 213
3 213 212 214
3 213 214 215
3 215 214 216
3 215 216 217
3 217 216 218
3 217 218 219
3 220 221 222
3 223 220 222
3 220 223 224
3 224 225 220
3 219 218 226
3 219 226 227
3 227 226 228
3 227 228 229
3 230 231 232
3 230 232 233
3 231 230 234
3 231 234 235
3 236 231 235
3 236 235 237
3 238 236 237
3 238 237 239
3 240 238 239
3 240 239 241
3 242 240 241
3 242 241 243
3 230 242 243
3 230 243 234
3 244 233 232
3 245 244 232
3 244 245 246
3 246 247 244
3 242 230 233
3 242 233 244
3 238 240 247
3 238 247 246
3 231 236 245
3 231 245 232
3 240 242 244
3 240 244 247
3 236 238 246
3 236 246 245
3 248 249 250
3 248 250 251
3 251 250 252
3 251 252 253
3 254 255 256
3 254 256 257
3 258 259 260
3 258 260 261
3 262 263 264
3 265 262 264
3 262 265 266
3 267 262 266
3 262 267 268
3 269 262 268
3 262 269 270
3 270 271 262
3 272 261 260
3 260 273 274
3 275 260 274
3 260 275 276
3 272 260 276
3 277 278 279
3 277 279 280
3 281 282 283
3 281 283 284
3 281 285 286
3 281 286 287
3 288 282 289
3 288 289 290
3 291 288 290
3 291 290 292
3 293 294 295
3 293 295 296
3 297 298 299
3 297 299 300
3 301 297 300
3 301 300 302
3 303 304 284
3 283 303 284
3 303 283 305
3 306 303 305
3 303 306 307
3 308 303 307
3 303 308 309
3 309 310 303
3 301 285 304
3 301 304 303
3 293 311 309
3 293 309 308
3 282 288 305
3 282 305 283
3 309 311 312
3 298 309 312
3 309 298 297
3 297 310 309
3 291 294 307
3 291 307 306
3 294 293 308
3 294 308 307
3 311 293 296
3 311 296 313
3 257 256 259
3 257 259 258
3 288 291 306
3 288 306 305
3 294 291 292
3 294 292 295
3 253 252 255
3 253 255 254
3 282 281 287
3 282 287 289
3 285 281 284
3 285 284 304
3 314 315 249
3 314 249 248
3 297 301 303
3 297 303 310
3 285 301 302
3 285 302 286
3 274 273 278
3 274 278 277
3 316 312 311
3 316 311 313
3 312 316 276
3 312 276 298
3 299 298 276
